<svg width="65" height="81" viewBox="0 0 65 81" fill="none" xmlns="http://www.w3.org/2000/svg">
<mask id="mask0_79_127" style="mask-type:luminance" maskUnits="userSpaceOnUse" x="0" y="0" width="65" height="81">
<path d="M0 0H65V80.2469H0V0Z" fill="white"/>
</mask>
<g mask="url(#mask0_79_127)">
<path fill-rule="evenodd" clip-rule="evenodd" d="M49.9286 17.7546C54.1332 19.4808 57.7924 22.3688 60.4422 26.051C63.4097 30.1553 65 35.0516 65 40.1235C65 46.5516 62.4379 52.6641 57.8802 57.2094C53.3224 61.7525 47.191 64.3062 40.742 64.3062H34.4163V80.2469H14.2041V42.3595H26.5379C31.3966 42.3595 35.9899 40.4411 39.4171 37.0243C42.8443 33.6055 44.7711 29.0268 44.7711 24.1827C44.7711 19.3408 42.8443 14.76 39.4171 11.3432C36.0066 7.92647 31.3966 5.98926 26.5546 5.98926H6.00807V13.527H26.5379C29.3821 13.527 32.0674 14.6722 34.0819 16.6617C36.0777 18.6532 37.227 21.3469 37.227 24.1827C37.227 27.0185 36.0777 29.6955 34.0819 31.7038C32.0841 33.6953 29.3821 34.8384 26.5379 34.8384H6.00807V64.325H0V28.8325H26.5546C27.7918 28.8325 28.9578 28.3226 29.8418 27.4595C30.707 26.5964 31.219 25.4157 31.219 24.1827C31.219 22.9498 30.707 21.7879 29.8418 20.9081C28.9746 20.045 27.7918 19.533 26.5546 19.533H0V0H26.5546C33.0036 0 39.135 2.55369 43.6928 7.09893C46.6435 10.058 48.8169 13.7381 49.9286 17.7546ZM28.4103 58.319H40.7587C45.6174 58.319 50.2128 56.3797 53.64 52.9818C57.0673 49.565 58.9919 44.9842 58.9919 40.1402C58.9919 36.3368 57.8091 32.6546 55.5647 29.5722C54.2586 27.7583 52.6328 26.2098 50.7771 24.9769C50.5827 31.1228 48.0395 36.9178 43.674 41.2686C39.1162 45.8118 32.9848 48.3655 26.5379 48.3655H20.2122V74.2765H28.4103V58.319Z" fill="#5562EB"/>
</g>
</svg>
