<svg width="84" height="84" viewBox="0 0 84 84" fill="none" xmlns="http://www.w3.org/2000/svg">
<g clip-path="url(#clip0_62_75)">
<circle cx="42" cy="42" r="42" fill="#5562EB"/>
<path d="M38.0302 41.0229C37.8552 41.0054 37.6452 41.0054 37.4527 41.0229C33.2877 40.8829 29.9802 37.4704 29.9802 33.2704C29.9802 28.9829 33.4452 25.5004 37.7502 25.5004C42.0377 25.5004 45.5202 28.9829 45.5202 33.2704C45.5027 37.4704 42.1952 40.8829 38.0302 41.0229Z" stroke="white" stroke-width="2.625" stroke-linecap="round" stroke-linejoin="round"/>
<path d="M50.7171 28.9996C54.1121 28.9996 56.8421 31.7471 56.8421 35.1246C56.8421 38.4321 54.2171 41.1271 50.9446 41.2496C50.8046 41.2321 50.6471 41.2321 50.4896 41.2496" stroke="white" stroke-width="2.625" stroke-linecap="round" stroke-linejoin="round"/>
<path d="M29.2805 47.4796C25.0455 50.3146 25.0455 54.9346 29.2805 57.7521C34.093 60.9721 41.9855 60.9721 46.798 57.7521C51.033 54.9171 51.033 50.2971 46.798 47.4796C42.003 44.2771 34.1105 44.2771 29.2805 47.4796Z" stroke="white" stroke-width="2.625" stroke-linecap="round" stroke-linejoin="round"/>
<path d="M54.0947 57.0004C55.3547 56.7379 56.5447 56.2304 57.5247 55.4779C60.2547 53.4304 60.2547 50.0529 57.5247 48.0054C56.5622 47.2704 55.3897 46.7804 54.1472 46.5004" stroke="white" stroke-width="2.625" stroke-linecap="round" stroke-linejoin="round"/>
</g>
<defs>
<clipPath id="clip0_62_75">
<rect width="84" height="84" fill="white"/>
</clipPath>
</defs>
</svg>
