<svg width="84" height="44" viewBox="0 0 84 44" fill="none" xmlns="http://www.w3.org/2000/svg">
<rect x="5.20944" width="80" height="30" rx="5" transform="rotate(10 5.20944 0)" fill="#4CBE16" fill-opacity="0.3"/>
<path d="M27.7697 23.2711L29.2852 14.6764L35.0765 15.6975L34.8124 17.1957L30.8382 16.495L30.4771 18.5429L34.1533 19.1911L33.8891 20.6893L30.2129 20.0411L29.851 22.0933L33.842 22.797L33.5779 24.2952L27.7697 23.2711ZM36.7889 24.9869C36.3776 24.9143 36.0237 24.7784 35.7271 24.579C35.431 24.3767 35.2141 24.1178 35.0765 23.8022C34.9422 23.4843 34.9125 23.1127 34.9875 22.6874C35.0506 22.3293 35.1694 22.0401 35.3438 21.8199C35.5182 21.5997 35.7318 21.4354 35.9846 21.3271C36.2373 21.2188 36.5145 21.1523 36.816 21.1275C37.1202 21.1033 37.4346 21.1039 37.7589 21.1294C38.1407 21.1563 38.4493 21.1732 38.6847 21.1801C38.9205 21.1842 39.0963 21.1604 39.2122 21.1087C39.328 21.057 39.398 20.9626 39.4222 20.8255L39.4266 20.8003C39.4735 20.5345 39.4258 20.3141 39.2836 20.139C39.1442 19.9644 38.922 19.8503 38.6171 19.7965C38.2953 19.7398 38.0268 19.766 37.8113 19.8751C37.5964 19.9814 37.4395 20.1355 37.3404 20.3373L35.7106 19.9114C35.8636 19.5345 36.0884 19.2251 36.3849 18.9832C36.6819 18.7384 37.0384 18.5734 37.4545 18.4881C37.8738 18.4005 38.3408 18.402 38.8556 18.4928C39.2137 18.556 39.549 18.6584 39.8616 18.8C40.1769 18.9422 40.4463 19.1238 40.6698 19.345C40.8962 19.5666 41.059 19.829 41.1585 20.1321C41.2584 20.4324 41.2746 20.7742 41.207 21.1575L40.4404 25.5052L38.745 25.2063L38.9026 24.3124L38.8522 24.3035C38.7132 24.4867 38.5434 24.6399 38.3428 24.7632C38.1427 24.8837 37.9133 24.9659 37.6546 25.0097C37.3964 25.0507 37.1078 25.0431 36.7889 24.9869ZM37.5184 23.8433C37.7814 23.8897 38.0227 23.8789 38.2424 23.8109C38.4626 23.7401 38.6458 23.6253 38.7921 23.4664C38.9384 23.3076 39.0315 23.1149 39.0715 22.8883L39.1921 22.2042C39.1297 22.2307 39.0469 22.2507 38.9435 22.2642C38.8435 22.2754 38.7311 22.283 38.6063 22.287C38.4821 22.2882 38.3581 22.2879 38.2343 22.2863C38.111 22.2819 37.9992 22.278 37.8988 22.2748C37.6836 22.2685 37.4917 22.2852 37.3232 22.3247C37.1547 22.3642 37.0169 22.4337 36.91 22.5331C36.8035 22.6297 36.7355 22.762 36.7059 22.9298C36.6629 23.1732 36.7183 23.3748 36.8718 23.5346C37.0287 23.6921 37.2442 23.795 37.5184 23.8433ZM48.0032 22.0876L46.3487 21.8997C46.3454 21.7549 46.3074 21.6184 46.2349 21.4902C46.1628 21.3592 46.0571 21.2468 45.9178 21.153C45.7819 21.057 45.6104 20.9907 45.4034 20.9542C45.1264 20.9053 44.8824 20.9229 44.6715 21.0068C44.461 21.088 44.3387 21.2251 44.3047 21.4181C44.2776 21.572 44.3162 21.713 44.4205 21.841C44.5249 21.969 44.7211 22.0916 45.0091 22.2087L46.1343 22.6494C46.7383 22.8886 47.169 23.1781 47.4265 23.5177C47.6839 23.8573 47.7717 24.2594 47.6898 24.7238C47.6153 25.1463 47.4254 25.495 47.1202 25.77C46.8177 26.0456 46.4353 26.2349 45.9729 26.338C45.5137 26.4387 45.0044 26.4398 44.4449 26.3411C43.5915 26.1907 42.943 25.8931 42.4993 25.4485C42.0588 25.0016 41.8495 24.4628 41.8713 23.832L43.646 24.0497C43.6532 24.3193 43.7469 24.5406 43.927 24.7137C44.1075 24.884 44.3573 24.9973 44.6762 25.0535C44.9896 25.1088 45.252 25.093 45.4634 25.0063C45.6782 24.9172 45.804 24.7764 45.8408 24.5838C45.8666 24.4211 45.8215 24.2761 45.7055 24.1489C45.5899 24.0189 45.3972 23.9013 45.1273 23.796L44.0502 23.3767C43.4429 23.1398 43.0128 22.839 42.7598 22.4742C42.5096 22.1098 42.4269 21.6871 42.5118 21.2059C42.5848 20.7918 42.7596 20.4548 43.0362 20.1949C43.3156 19.9355 43.6738 19.7607 44.1109 19.6704C44.5508 19.5807 45.0463 19.5844 45.5975 19.6816C46.4116 19.8251 47.022 20.1102 47.4285 20.5367C47.8379 20.9637 48.0294 21.4807 48.0032 22.0876ZM49.1408 29.5318C48.9142 29.4918 48.7047 29.4361 48.5125 29.3647C48.3226 29.2966 48.168 29.2246 48.0486 29.1488L48.6868 27.8853C48.8853 27.9866 49.068 28.0549 49.2349 28.0901C49.4045 28.1258 49.5583 28.1125 49.6962 28.0503C49.8369 27.9886 49.9642 27.8639 50.0781 27.6763L50.2311 27.422L49.0879 20.3836L50.968 20.7151L51.4678 25.6842L51.535 25.696L53.7168 21.1998L55.6095 21.5335L51.8446 28.2344C51.6632 28.5601 51.4462 28.8334 51.1938 29.0543C50.9437 29.2785 50.6496 29.4329 50.3116 29.5175C49.9731 29.605 49.5828 29.6097 49.1408 29.5318Z" fill="#4CBE16"/>
</svg>
