<svg width="83" height="37" viewBox="0 0 83 37" fill="none" xmlns="http://www.w3.org/2000/svg">
<rect x="2.61469" width="80" height="30" rx="5" transform="rotate(5 2.61469 0)" fill="#FF5733" fill-opacity="0.2"/>
<path d="M27.1173 21.2163L27.878 12.5222L29.7161 12.683L29.4023 16.2702L33.1338 16.5967L33.4476 13.0095L35.2815 13.17L34.5209 21.864L32.687 21.7036L33.0012 18.1122L29.2697 17.7857L28.9555 21.3771L27.1173 21.2163ZM37.851 22.2794C37.435 22.243 37.0706 22.1384 36.7577 21.9656C36.4452 21.79 36.2066 21.5509 36.0419 21.2485C35.8804 20.9435 35.8185 20.5759 35.8561 20.1457C35.8878 19.7835 35.9809 19.4851 36.1355 19.2505C36.29 19.0159 36.4885 18.8336 36.7308 18.7037C36.9732 18.5738 37.2435 18.4833 37.5417 18.4324C37.8427 18.3818 38.1559 18.355 38.4812 18.3521C38.8639 18.3456 39.1728 18.3356 39.4078 18.3219C39.6431 18.3054 39.8162 18.2664 39.9271 18.2048C40.038 18.1432 40.0995 18.0431 40.1117 17.9044L40.1139 17.8789C40.1374 17.6101 40.0707 17.3946 39.9138 17.2326C39.7597 17.0708 39.5284 16.9765 39.2199 16.9495C38.8945 16.921 38.6292 16.9705 38.4241 17.098C38.2193 17.2227 38.0763 17.3898 37.9953 17.5995L36.3345 17.3173C36.4541 16.9285 36.6511 16.6007 36.9254 16.3338C37.1999 16.0641 37.5407 15.8686 37.9477 15.7474C38.3578 15.6235 38.8232 15.5844 39.3439 15.63C39.7062 15.6617 40.0491 15.7344 40.3728 15.8483C40.6994 15.9624 40.9836 16.1199 41.2255 16.3207C41.4703 16.5218 41.6554 16.769 41.7809 17.0623C41.9066 17.3528 41.9525 17.6919 41.9186 18.0796L41.5338 22.4776L39.8188 22.3275L39.8979 21.4233L39.847 21.4189C39.7244 21.6135 39.5686 21.7809 39.3795 21.9212C39.1907 22.0587 38.9693 22.1605 38.7154 22.2267C38.4618 22.2901 38.1737 22.3076 37.851 22.2794ZM38.4781 21.0767C38.7442 21.0999 38.9836 21.0681 39.1966 20.9812C39.4097 20.8915 39.5823 20.7612 39.7141 20.5902C39.846 20.4192 39.922 20.2191 39.942 19.9899L40.0026 19.2979C39.9428 19.3298 39.862 19.3569 39.7602 19.3794C39.6615 19.3993 39.5502 19.4166 39.4263 19.4314C39.3026 19.4434 39.179 19.454 39.0556 19.4632C38.9324 19.4695 38.8207 19.4754 38.7204 19.4809C38.5054 19.4935 38.3157 19.5268 38.1513 19.5808C37.9869 19.6349 37.8557 19.7161 37.7578 19.8245C37.6602 19.93 37.6039 20.0676 37.5891 20.2375C37.5675 20.4837 37.6402 20.6797 37.8071 20.8255C37.9771 20.9687 38.2008 21.0524 38.4781 21.0767ZM42.9369 22.6003L43.5073 16.0798L45.2606 16.2332L45.1611 17.3709L45.229 17.3768C45.3832 16.9825 45.6095 16.6943 45.9078 16.5122C46.2063 16.3273 46.5381 16.2508 46.9031 16.2828C46.9937 16.2907 47.0908 16.3049 47.1946 16.3254C47.2983 16.3458 47.3889 16.3695 47.4664 16.3962L47.326 18.0009C47.2434 17.968 47.1279 17.9351 46.9796 17.9021C46.8314 17.8692 46.695 17.8473 46.5704 17.8364C46.3044 17.8131 46.0616 17.8503 45.842 17.948C45.6255 18.0432 45.4475 18.1873 45.308 18.3804C45.1713 18.5738 45.0913 18.8035 45.0681 19.0695L44.7453 22.7585L42.9369 22.6003ZM49.9183 23.3181C49.423 23.2747 48.9856 23.1081 48.606 22.8183C48.2295 22.5258 47.9456 22.1203 47.7542 21.6016C47.566 21.0804 47.5037 20.4561 47.5673 19.7288C47.6327 18.9816 47.8073 18.3709 48.0912 17.8967C48.3754 17.4197 48.7277 17.0755 49.1483 16.8642C49.572 16.6503 50.0229 16.5643 50.5012 16.6061C50.8663 16.638 51.1651 16.7269 51.3976 16.8727C51.6332 17.016 51.8179 17.1861 51.9518 17.3832C52.0888 17.5777 52.1892 17.7662 52.2531 17.9486L52.3083 17.9534L52.5943 14.6846L54.3985 14.8425L53.6378 23.5365L51.8549 23.3805L51.9462 22.3362L51.8698 22.3296C51.7691 22.5032 51.6331 22.6724 51.4618 22.8371C51.2936 22.9992 51.0814 23.1275 50.825 23.222C50.5714 23.3167 50.2692 23.3488 49.9183 23.3181ZM50.6173 21.9291C50.9088 21.9546 51.1619 21.8969 51.3767 21.756C51.5946 21.6125 51.77 21.4011 51.9028 21.1219C52.0384 20.8428 52.1232 20.5095 52.1571 20.1218C52.191 19.734 52.1667 19.3925 52.0842 19.0973C52.0016 18.802 51.8653 18.5677 51.6751 18.3942C51.485 18.2207 51.2442 18.1212 50.9527 18.0957C50.6555 18.0697 50.398 18.1285 50.1801 18.272C49.9622 18.4154 49.7884 18.6255 49.6587 18.9022C49.529 19.1789 49.4476 19.5054 49.4147 19.8818C49.3815 20.2611 49.4046 20.601 49.4838 20.9017C49.5661 21.1998 49.7005 21.4397 49.8871 21.6214C50.0767 21.8005 50.3201 21.9031 50.6173 21.9291Z" fill="#FF5733"/>
</svg>
