<svg width="86" height="50" viewBox="0 0 86 50" fill="none" xmlns="http://www.w3.org/2000/svg">
<g clip-path="url(#clip0_127_148)">
<rect y="20.7056" width="80" height="30" rx="5" transform="rotate(-15 0 20.7056)" fill="#D9BF64" fill-opacity="0.2"/>
<path d="M18.8463 26.2909L21.0443 25.7019L24.8834 30.7437L24.9822 30.7172L25.7861 24.4313L27.9841 23.8424L30.2429 32.2723L28.5141 32.7355L27.0439 27.2486L26.974 27.2674L26.2516 33.2976L25.0743 33.6131L21.4281 28.7313L21.3581 28.7501L22.8338 34.2575L21.105 34.7208L18.8463 26.2909ZM34.5928 31.2391C33.9425 31.4133 33.3474 31.4316 32.8076 31.2939C32.2697 31.1527 31.8095 30.8731 31.4269 30.455C31.0436 30.0342 30.7626 29.4904 30.5839 28.8236C30.4096 28.1732 30.3829 27.5687 30.5038 27.0098C30.6246 26.451 30.8774 25.9729 31.2622 25.5757C31.6496 25.1778 32.1535 24.8958 32.7736 24.7296C33.1907 24.6178 33.597 24.581 33.9925 24.6191C34.3901 24.6538 34.7589 24.7682 35.0992 24.9623C35.4422 25.1557 35.7432 25.4339 36.0022 25.7968C36.2605 26.157 36.4617 26.606 36.6058 27.1439L36.7348 27.6255L31.3962 29.056L31.105 27.9693L34.7931 26.9811C34.7254 26.7286 34.6106 26.5197 34.4486 26.3543C34.2867 26.1888 34.0936 26.0773 33.8693 26.0198C33.6471 25.9587 33.4084 25.9624 33.1532 26.0308C32.887 26.1021 32.6675 26.2271 32.4948 26.4057C32.3241 26.5809 32.2087 26.7868 32.1486 27.0235C32.0878 27.2574 32.0894 27.4996 32.1536 27.7501L32.4304 28.7832C32.5142 29.0961 32.6443 29.3509 32.8206 29.5478C32.9996 29.7439 33.2127 29.8751 33.4598 29.9412C33.7069 30.0073 33.9773 30.0011 34.2709 29.9224C34.4658 29.8702 34.6368 29.795 34.784 29.6967C34.9312 29.5984 35.0477 29.479 35.1335 29.3383C35.2194 29.1977 35.2711 29.0397 35.2889 28.8644L36.9393 28.5368C36.9614 28.9486 36.8838 29.334 36.7065 29.6933C36.5313 30.0491 36.265 30.3616 35.9078 30.6308C35.5525 30.8966 35.1142 31.0994 34.5928 31.2391ZM40.9633 29.5101C40.483 29.6387 40.015 29.6318 39.5592 29.4892C39.1053 29.3432 38.6998 29.0592 38.3427 28.6373C37.9875 28.2118 37.7154 27.6465 37.5265 26.9413C37.3324 26.2168 37.2876 25.5833 37.3922 25.0405C37.496 24.4951 37.7094 24.0511 38.0324 23.7087C38.3573 23.3628 38.7517 23.1278 39.2154 23.0035C39.5694 22.9087 39.8806 22.89 40.1489 22.9475C40.4193 23.0015 40.6511 23.0982 40.8443 23.2376C41.0395 23.3735 41.1984 23.5163 41.3208 23.6658L41.3743 23.6515L40.5251 20.482L42.2744 20.0133L44.5332 28.4432L42.8044 28.9064L42.5331 27.8938L42.459 27.9137C42.4237 28.1114 42.3538 28.3169 42.2492 28.5302C42.1466 28.74 41.991 28.9332 41.7824 29.1097C41.5766 29.2854 41.3035 29.4189 40.9633 29.5101ZM41.145 27.9658C41.4277 27.89 41.6458 27.7492 41.7995 27.5434C41.9552 27.334 42.0476 27.0754 42.0769 26.7676C42.1089 26.459 42.0746 26.1167 41.9738 25.7408C41.8731 25.3649 41.7335 25.0523 41.5549 24.8031C41.3764 24.5538 41.1681 24.3802 40.9301 24.2823C40.6921 24.1843 40.4318 24.1732 40.1491 24.2489C39.861 24.3261 39.6391 24.4694 39.4834 24.6787C39.3277 24.8881 39.2363 25.1449 39.209 25.4493C39.1817 25.7537 39.217 26.0883 39.3148 26.4533C39.4133 26.821 39.5512 27.1326 39.7285 27.388C39.9078 27.64 40.1161 27.8194 40.3536 27.9264C40.5931 28.0298 40.8569 28.043 41.145 27.9658ZM45.9749 28.0569L44.2808 21.7345L46.0343 21.2646L47.7284 27.5871L45.9749 28.0569ZM44.9433 20.6834C44.6826 20.7533 44.4358 20.7268 44.2029 20.6039C43.972 20.4775 43.8238 20.2923 43.7583 20.048C43.6936 19.8065 43.73 19.5747 43.8676 19.3526C44.0071 19.127 44.2072 18.9792 44.4679 18.9094C44.7286 18.8395 44.9744 18.8678 45.2053 18.9941C45.4383 19.117 45.5871 19.2992 45.6518 19.5407C45.7172 19.7849 45.6802 20.0198 45.5406 20.2455C45.4031 20.4676 45.204 20.6136 44.9433 20.6834ZM52.4661 23.4323L51.4933 19.8019L53.2468 19.332L54.9409 25.6545L53.2574 26.1056L52.9497 24.9571L52.8838 24.9748C52.8404 25.3835 52.6828 25.7448 52.4111 26.0588C52.1421 26.3721 51.7702 26.5923 51.2955 26.7195C50.8729 26.8327 50.4753 26.8363 50.1028 26.7302C49.7303 26.6242 49.406 26.4184 49.1301 26.113C48.8568 25.8068 48.6527 25.4071 48.5176 24.9139L47.4389 20.8883L49.1924 20.4184L50.1872 24.1312C50.29 24.5037 50.4692 24.7718 50.7249 24.9356C50.9805 25.0995 51.2744 25.1369 51.6064 25.048C51.8177 24.9913 52.0024 24.8904 52.1605 24.7451C52.3179 24.597 52.4271 24.4119 52.4882 24.1896C52.552 23.9667 52.5446 23.7142 52.4661 23.4323ZM56.3435 25.2786L54.6494 18.9562L56.3206 18.5084L56.6195 19.6239L56.6936 19.6041C56.726 19.1983 56.8672 18.8472 57.1172 18.5508C57.3672 18.2545 57.7062 18.0489 58.1343 17.9342C58.5679 17.818 58.966 17.8275 59.3287 17.9627C59.6907 18.0951 59.9717 18.3316 60.1717 18.6721L60.2376 18.6544C60.2695 18.2577 60.4252 17.9057 60.7046 17.5984C60.9861 17.2877 61.3587 17.0702 61.8224 16.946C62.4124 16.7879 62.9416 16.8476 63.41 17.125C63.8805 17.3989 64.2076 17.8789 64.3915 18.5649L65.5308 22.8169L63.7814 23.2857L62.7347 19.3794C62.6406 19.0282 62.4767 18.7897 62.2431 18.6641C62.0094 18.5385 61.7526 18.5132 61.4727 18.5882C61.1544 18.6735 60.9333 18.8415 60.8093 19.0924C60.6846 19.3405 60.6664 19.6292 60.7546 19.9585L61.7892 23.8195L60.0892 24.275L59.0326 20.3317C58.9495 20.0216 58.7942 19.7985 58.5665 19.6625C58.3416 19.5257 58.0851 19.4959 57.797 19.5731C57.6022 19.6253 57.4398 19.7217 57.3098 19.8624C57.1819 19.9997 57.0962 20.1682 57.0527 20.3681C57.0085 20.5652 57.0176 20.7804 57.0801 21.0137L58.097 24.8088L56.3435 25.2786Z" fill="#D9BF64"/>
</g>
<defs>
<clipPath id="clip0_127_148">
<rect y="20.7056" width="80" height="30" rx="5" transform="rotate(-15 0 20.7056)" fill="white"/>
</clipPath>
</defs>
</svg>
