<svg xmlns="http://www.w3.org/2000/svg" xmlns:xlink="http://www.w3.org/1999/xlink" width="1086" zoomAndPan="magnify" viewBox="0 0 814.5 355.499994" height="474" preserveAspectRatio="xMidYMid meet" version="1.0"><defs><filter x="0%" y="0%" width="100%" height="100%" id="24ee301f22"><feColorMatrix values="0 0 0 0 1 0 0 0 0 1 0 0 0 0 1 0 0 0 1 0" color-interpolation-filters="sRGB"/></filter><clipPath id="d87b21ce5e"><path d="M 0.324219 0 L 813.679688 0 L 813.679688 355 L 0.324219 355 Z M 0.324219 0 " clip-rule="nonzero"/></clipPath><clipPath id="1ba5373558"><path d="M 186.394531 45.542969 L 213.359375 45.542969 L 213.359375 72.503906 L 186.394531 72.503906 Z M 186.394531 45.542969 " clip-rule="nonzero"/></clipPath><clipPath id="5c41237e19"><path d="M 607.054688 280.910156 L 634.015625 280.910156 L 634.015625 307.871094 L 607.054688 307.871094 Z M 607.054688 280.910156 " clip-rule="nonzero"/></clipPath><clipPath id="f467476121"><path d="M 285 6 L 531 6 L 531 350 L 285 350 Z M 285 6 " clip-rule="nonzero"/></clipPath><clipPath id="2e005428e9"><path d="M 277.417969 36.222656 L 478.773438 0.71875 L 534.957031 319.347656 L 333.601562 354.851562 Z M 277.417969 36.222656 " clip-rule="nonzero"/></clipPath><clipPath id="bdf5f279ee"><path d="M 277.417969 36.222656 L 478.773438 0.71875 L 534.957031 319.347656 L 333.601562 354.851562 Z M 277.417969 36.222656 " clip-rule="nonzero"/></clipPath><mask id="d8582a3b0c"><g filter="url(#24ee301f22)"><rect x="-81.45" width="977.4" fill="#000000" y="-35.549999" height="426.599993" fill-opacity="0.298"/></g></mask><clipPath id="3366baddb6"><path d="M 49 6 L 197 6 L 197 339 L 49 339 Z M 49 6 " clip-rule="nonzero"/></clipPath><clipPath id="216d4805a3"><path d="M -7.582031 30.222656 L 193.773438 -5.28125 L 249.957031 313.347656 L 48.601562 348.851562 Z M -7.582031 30.222656 " clip-rule="nonzero"/></clipPath><clipPath id="d404b0dee2"><path d="M -7.582031 30.222656 L 193.773438 -5.28125 L 249.957031 313.347656 L 48.601562 348.851562 Z M -7.582031 30.222656 " clip-rule="nonzero"/></clipPath><clipPath id="03bd6c0949"><rect x="0" width="246" y="0" height="344"/></clipPath><clipPath id="a90ecf370f"><path d="M 330 11 L 478 11 L 478 344 L 330 344 Z M 330 11 " clip-rule="nonzero"/></clipPath><clipPath id="d03c7f2a8e"><path d="M 277.417969 36.222656 L 478.773438 0.71875 L 534.957031 319.347656 L 333.601562 354.851562 Z M 277.417969 36.222656 " clip-rule="nonzero"/></clipPath><clipPath id="24614527e4"><path d="M 277.417969 36.222656 L 478.773438 0.71875 L 534.957031 319.347656 L 333.601562 354.851562 Z M 277.417969 36.222656 " clip-rule="nonzero"/></clipPath><clipPath id="16c5314ba5"><path d="M 433.820312 33.96875 L 456.96875 33.96875 L 456.96875 57.117188 L 433.820312 57.117188 Z M 433.820312 33.96875 " clip-rule="nonzero"/></clipPath><clipPath id="bd6fae889e"><path d="M 445.394531 33.96875 C 439.003906 33.96875 433.820312 39.148438 433.820312 45.542969 C 433.820312 51.933594 439.003906 57.117188 445.394531 57.117188 C 451.789062 57.117188 456.96875 51.933594 456.96875 45.542969 C 456.96875 39.148438 451.789062 33.96875 445.394531 33.96875 Z M 445.394531 33.96875 " clip-rule="nonzero"/></clipPath><clipPath id="1dd6e6875e"><path d="M 349.917969 296.445312 L 373.066406 296.445312 L 373.066406 319.59375 L 349.917969 319.59375 Z M 349.917969 296.445312 " clip-rule="nonzero"/></clipPath><clipPath id="c035b7b27e"><path d="M 361.492188 296.445312 C 355.097656 296.445312 349.917969 301.628906 349.917969 308.019531 C 349.917969 314.414062 355.097656 319.59375 361.492188 319.59375 C 367.882812 319.59375 373.066406 314.414062 373.066406 308.019531 C 373.066406 301.628906 367.882812 296.445312 361.492188 296.445312 Z M 361.492188 296.445312 " clip-rule="nonzero"/></clipPath></defs><g clip-path="url(#d87b21ce5e)"><path fill="#ffffff" d="M 0.324219 0 L 813.679688 0 L 813.679688 355 L 0.324219 355 Z M 0.324219 0 " fill-opacity="1" fill-rule="nonzero"/></g><g clip-path="url(#1ba5373558)"><path fill="#ffffff" d="M 213.5 59.09375 C 213.5 59.984375 213.414062 60.867188 213.238281 61.738281 C 213.066406 62.613281 212.808594 63.460938 212.46875 64.28125 C 212.128906 65.101562 211.710938 65.882812 211.214844 66.625 C 210.722656 67.363281 210.160156 68.046875 209.53125 68.679688 C 208.902344 69.308594 208.21875 69.871094 207.476562 70.363281 C 206.738281 70.859375 205.957031 71.277344 205.132812 71.617188 C 204.3125 71.957031 203.464844 72.214844 202.589844 72.386719 C 201.71875 72.5625 200.835938 72.648438 199.949219 72.648438 C 199.058594 72.648438 198.175781 72.5625 197.304688 72.386719 C 196.429688 72.214844 195.582031 71.957031 194.761719 71.617188 C 193.9375 71.277344 193.15625 70.859375 192.417969 70.363281 C 191.679688 69.871094 190.992188 69.308594 190.363281 68.679688 C 189.734375 68.046875 189.171875 67.363281 188.679688 66.625 C 188.183594 65.882812 187.765625 65.101562 187.425781 64.28125 C 187.085938 63.460938 186.828125 62.613281 186.65625 61.738281 C 186.480469 60.867188 186.394531 59.984375 186.394531 59.09375 C 186.394531 58.203125 186.480469 57.324219 186.65625 56.449219 C 186.828125 55.578125 187.085938 54.730469 187.425781 53.90625 C 187.765625 53.085938 188.183594 52.304688 188.679688 51.566406 C 189.171875 50.824219 189.734375 50.140625 190.363281 49.511719 C 190.992188 48.882812 191.679688 48.320312 192.417969 47.824219 C 193.15625 47.332031 193.9375 46.914062 194.761719 46.574219 C 195.582031 46.234375 196.429688 45.976562 197.304688 45.800781 C 198.175781 45.628906 199.058594 45.542969 199.949219 45.542969 C 200.835938 45.542969 201.71875 45.628906 202.589844 45.800781 C 203.464844 45.976562 204.3125 46.234375 205.132812 46.574219 C 205.957031 46.914062 206.738281 47.332031 207.476562 47.824219 C 208.21875 48.320312 208.902344 48.882812 209.53125 49.511719 C 210.160156 50.140625 210.722656 50.824219 211.214844 51.566406 C 211.710938 52.304688 212.128906 53.085938 212.46875 53.90625 C 212.808594 54.730469 213.066406 55.578125 213.238281 56.449219 C 213.414062 57.324219 213.5 58.203125 213.5 59.09375 Z M 213.5 59.09375 " fill-opacity="1" fill-rule="nonzero"/></g><g clip-path="url(#5c41237e19)"><path fill="#ffffff" d="M 634.15625 294.460938 C 634.15625 295.351562 634.070312 296.234375 633.898438 297.105469 C 633.722656 297.980469 633.46875 298.824219 633.125 299.648438 C 632.785156 300.46875 632.367188 301.25 631.875 301.992188 C 631.378906 302.730469 630.816406 303.414062 630.1875 304.046875 C 629.558594 304.675781 628.875 305.234375 628.132812 305.730469 C 627.394531 306.226562 626.613281 306.640625 625.792969 306.984375 C 624.96875 307.324219 624.121094 307.582031 623.25 307.753906 C 622.375 307.929688 621.496094 308.015625 620.605469 308.015625 C 619.714844 308.015625 618.832031 307.929688 617.960938 307.753906 C 617.089844 307.582031 616.242188 307.324219 615.417969 306.984375 C 614.597656 306.640625 613.816406 306.226562 613.074219 305.730469 C 612.335938 305.234375 611.652344 304.675781 611.023438 304.046875 C 610.390625 303.414062 609.832031 302.730469 609.335938 301.992188 C 608.839844 301.25 608.425781 300.46875 608.082031 299.648438 C 607.742188 298.824219 607.484375 297.980469 607.3125 297.105469 C 607.140625 296.234375 607.050781 295.351562 607.050781 294.460938 C 607.050781 293.570312 607.140625 292.691406 607.3125 291.816406 C 607.484375 290.945312 607.742188 290.097656 608.082031 289.273438 C 608.425781 288.453125 608.839844 287.671875 609.335938 286.933594 C 609.832031 286.191406 610.390625 285.507812 611.023438 284.878906 C 611.652344 284.25 612.335938 283.6875 613.074219 283.191406 C 613.816406 282.699219 614.597656 282.28125 615.417969 281.941406 C 616.242188 281.601562 617.089844 281.34375 617.960938 281.167969 C 618.832031 280.996094 619.714844 280.910156 620.605469 280.910156 C 621.496094 280.910156 622.375 280.996094 623.25 281.167969 C 624.121094 281.34375 624.96875 281.601562 625.792969 281.941406 C 626.613281 282.28125 627.394531 282.699219 628.132812 283.191406 C 628.875 283.6875 629.558594 284.25 630.1875 284.878906 C 630.816406 285.507812 631.378906 286.191406 631.875 286.933594 C 632.367188 287.671875 632.785156 288.453125 633.125 289.273438 C 633.46875 290.097656 633.722656 290.945312 633.898438 291.816406 C 634.070312 292.691406 634.15625 293.570312 634.15625 294.460938 Z M 634.15625 294.460938 " fill-opacity="1" fill-rule="nonzero"/></g><path fill="#5562eb" d="M 589.074219 320.105469 L 786.921875 190.570312 C 799.769531 182.15625 803.371094 164.894531 794.957031 152.042969 C 786.546875 139.195312 769.285156 135.59375 756.433594 144.007812 L 558.589844 273.546875 C 545.738281 281.957031 542.136719 299.21875 550.550781 312.070312 C 558.964844 324.917969 576.226562 328.519531 589.074219 320.105469 Z M 589.074219 320.105469 " fill-opacity="1" fill-rule="evenodd"/><path fill="#5562eb" d="M 547.601562 79.46875 L 759.28125 184.902344 C 773.027344 191.75 789.75 186.148438 796.597656 172.398438 C 803.441406 158.652344 797.839844 141.933594 784.09375 135.085938 L 572.414062 29.652344 C 558.667969 22.804688 541.949219 28.40625 535.101562 42.15625 C 528.253906 55.902344 533.855469 72.625 547.601562 79.46875 Z M 547.601562 79.46875 " fill-opacity="1" fill-rule="evenodd"/><path fill="#5562eb" d="M 224.488281 27.785156 L 26.644531 157.320312 C 13.792969 165.734375 10.191406 182.996094 18.605469 195.847656 C 27.015625 208.695312 44.277344 212.296875 57.128906 203.882812 L 254.972656 74.34375 C 267.824219 65.933594 271.425781 48.671875 263.011719 35.820312 C 254.597656 22.972656 237.335938 19.371094 224.488281 27.785156 Z M 224.488281 27.785156 " fill-opacity="1" fill-rule="evenodd"/><path fill="#5562eb" d="M 265.960938 268.421875 L 54.285156 162.988281 C 40.535156 156.140625 23.8125 161.742188 16.96875 175.492188 C 10.121094 189.238281 15.722656 205.957031 29.46875 212.804688 L 241.148438 318.238281 C 254.894531 325.085938 271.613281 319.484375 278.460938 305.734375 C 285.308594 291.988281 279.707031 275.265625 265.960938 268.421875 Z M 265.960938 268.421875 " fill-opacity="1" fill-rule="evenodd"/><g clip-path="url(#f467476121)"><g clip-path="url(#2e005428e9)"><g clip-path="url(#bdf5f279ee)"><g mask="url(#d8582a3b0c)"><g transform="matrix(1, 0, 0, 1, 285, 6)"><g clip-path="url(#03bd6c0949)"><g clip-path="url(#3366baddb6)"><g clip-path="url(#216d4805a3)"><g clip-path="url(#d404b0dee2)"><path fill="#5562eb" d="M 50.148438 303.15625 L 50.054688 303.742188 L 50.148438 303.15625 C 50.632812 300.289062 51.335938 297.535156 52.261719 294.898438 C 52.300781 294.78125 52.34375 294.664062 52.386719 294.546875 C 54.527344 288.671875 56.351562 283.417969 57.851562 278.789062 L 57.878906 278.710938 L 57.878906 278.703125 L 57.851562 278.789062 C 61.058594 268.890625 64.578125 257.769531 68.410156 245.433594 L 68.363281 245.582031 C 79 210.695312 90.933594 171.316406 104.164062 127.449219 L 104.171875 127.425781 L 104.191406 127.363281 C 107.621094 116.089844 110.886719 105.5625 113.988281 95.777344 C 124.277344 63.285156 132.121094 40.019531 137.519531 25.972656 C 143.546875 10.277344 161.15625 2.445312 176.847656 8.476562 C 192.539062 14.503906 200.375 32.113281 194.34375 47.804688 C 189.386719 60.710938 181.945312 82.832031 172.023438 114.15625 C 168.992188 123.722656 165.792969 134.039062 162.421875 145.097656 L 162.445312 145.035156 L 162.441406 145.042969 L 162.445312 145.027344 C 149.195312 188.953125 137.246094 228.390625 126.59375 263.335938 C 126.578125 263.382812 126.5625 263.433594 126.546875 263.484375 C 122.640625 276.0625 119.046875 287.421875 115.761719 297.558594 L 115.734375 297.640625 L 115.734375 297.648438 L 115.757812 297.566406 C 114.03125 302.894531 111.96875 308.839844 109.574219 315.40625 L 109.703125 315.054688 C 109.925781 314.414062 110.085938 313.816406 110.179688 313.257812 L 110.273438 312.671875 C 107.390625 329.835938 91.691406 341.011719 75.113281 338.222656 C 58.535156 335.433594 47.359375 319.734375 50.148438 303.15625 Z M 50.148438 303.15625 " fill-opacity="1" fill-rule="nonzero"/></g></g></g></g></g></g></g></g></g><g clip-path="url(#a90ecf370f)"><g clip-path="url(#d03c7f2a8e)"><g clip-path="url(#24614527e4)"><path fill="#5562eb" d="M 331.042969 307.9375 C 331.523438 305.070312 332.226562 302.316406 333.152344 299.683594 C 333.195312 299.566406 333.238281 299.445312 333.277344 299.332031 L 333.320312 299.222656 C 333.320312 299.21875 333.320312 299.21875 333.320312 299.21875 L 333.28125 299.328125 C 335.421875 293.449219 337.246094 288.199219 338.746094 283.574219 L 338.742188 283.578125 C 341.953125 273.675781 345.472656 262.554688 349.304688 250.214844 L 349.257812 250.367188 C 359.894531 215.480469 371.824219 176.101562 385.058594 132.234375 L 385.0625 132.21875 L 385.0625 132.210938 L 385.082031 132.144531 C 388.515625 120.871094 391.78125 110.34375 394.878906 100.5625 L 394.882812 100.558594 C 405.171875 68.070312 413.015625 44.800781 418.414062 30.753906 C 424.441406 15.0625 442.050781 7.230469 457.742188 13.257812 C 473.433594 19.285156 481.265625 36.894531 475.238281 52.585938 C 470.277344 65.496094 462.835938 87.613281 452.914062 118.941406 L 452.914062 118.9375 C 449.886719 128.507812 446.683594 138.824219 443.316406 149.882812 L 443.335938 149.816406 L 443.335938 149.824219 L 443.339844 149.8125 C 430.089844 193.734375 418.140625 233.167969 407.488281 268.117188 C 407.472656 268.167969 407.457031 268.214844 407.441406 268.265625 C 403.535156 280.847656 399.9375 292.207031 396.652344 302.34375 L 396.652344 302.351562 C 394.925781 307.675781 392.863281 313.621094 390.46875 320.183594 L 390.429688 320.292969 C 390.429688 320.296875 390.429688 320.296875 390.429688 320.296875 L 390.59375 319.835938 C 390.820312 319.195312 390.980469 318.597656 391.074219 318.042969 C 388.28125 334.621094 372.582031 345.796875 356.003906 343.007812 C 339.429688 340.214844 328.25 324.515625 331.042969 307.9375 Z M 331.042969 307.9375 " fill-opacity="1" fill-rule="nonzero"/></g></g></g><g clip-path="url(#16c5314ba5)"><g clip-path="url(#bd6fae889e)"><path fill="#ffffff" d="M 433.820312 33.96875 L 456.96875 33.96875 L 456.96875 57.117188 L 433.820312 57.117188 Z M 433.820312 33.96875 " fill-opacity="1" fill-rule="nonzero"/></g></g><g clip-path="url(#1dd6e6875e)"><g clip-path="url(#c035b7b27e)"><path fill="#ffffff" d="M 349.917969 296.445312 L 373.066406 296.445312 L 373.066406 319.59375 L 349.917969 319.59375 Z M 349.917969 296.445312 " fill-opacity="1" fill-rule="nonzero"/></g></g></svg>