<svg width="84" height="84" viewBox="0 0 84 84" fill="none" xmlns="http://www.w3.org/2000/svg">
<g clip-path="url(#clip0_64_69)">
<circle cx="42" cy="42" r="42" fill="#5562EB"/>
<path d="M46.0667 53.75L48.6 56.2833L53.6667 51.2167" stroke="white" stroke-width="2.5" stroke-linecap="round" stroke-linejoin="round"/>
<path d="M42.2669 40.117C42.1003 40.1003 41.9003 40.1003 41.7169 40.117C37.7503 39.9837 34.6003 36.7337 34.6003 32.7337C34.5836 28.6503 37.9003 25.3337 41.9836 25.3337C46.0669 25.3337 49.3836 28.6503 49.3836 32.7337C49.3836 36.7337 46.2169 39.9837 42.2669 40.117Z" stroke="white" stroke-width="2.5" stroke-linecap="round" stroke-linejoin="round"/>
<path d="M41.9832 58.3498C38.9498 58.3498 35.9332 57.5832 33.6332 56.0498C29.5998 53.3498 29.5998 48.9498 33.6332 46.2665C38.2165 43.1998 45.7332 43.1998 50.3165 46.2665" stroke="white" stroke-width="2.5" stroke-linecap="round" stroke-linejoin="round"/>
</g>
<defs>
<clipPath id="clip0_64_69">
<rect width="84" height="84" fill="white"/>
</clipPath>
</defs>
</svg>
